**ABCDEFGHIJKLMNOPQRSTUVWXYZabcdefghijklmnopqrstuvwxyz**************************
**PARASOLID !"#$%&'()*+,-./:;<=>?@[\]^_`{|}~0123456789**************************
**PART1;
MC=AMD64;
MC_MODEL=Intel64 Family 6 Model 78 Stepping 3, GenuineIntel;
MC_ID=unknown;
OS=Windows_NT;
OS_RELEASE=unknown;
FRU=Parasolid Version 28.0, build 174,  7- 3-2015;
APPL=SOLIDWORKS 2016-2015266;
SITE=;
USER=unknown;
FORMAT=text;
GUISE=transmit;
KEY=makeProjectedPlanarWire;
FILE=makeProjectedPlanarWire.x_t;
DATE=Sun Nov 21 19:10:34 2021;
**PART2;
SCH=SCH_2800174_28002;
USFLD_SIZE=0;
**PART3;
**END_OF_HEADER*****************************************************************
T51 : TRANSMIT FILE created by modeller version 280017423 SCH_2800174_28002_1300
6200 0 12 30 CCCCCCCCCCCCCDI5 owner1040 0 CCCCCCCCCA13 boundary_mesh1006 0 A16 i
ndex_map_offset0 0 1 dA9 index_map82 0 A17 node_id_index_map82 0 A20 schema_embe
dding_map82 0 A5 child12 0 A14 lowest_node_id0 0 1 dZ1 302 0 2 0 0 0 0 1e3 1e-8
 0 3 0 1 0 3 1 4 5 6 7 8 9 10 0 0 0 0 0 0 0 70 11 CI9 list_type0 0 1 uI10 notran
smit0 0 1 lCCCDCCDI12 finger_index0 0 1 dI12 finger_block1012 0 CZ2 0 4 T1 0 0 2
 20 1 11 11 13 255 4 257 0 1 0 12 0 0 8 12 52 255 5 2 0 12 0 0 0 +.005625 0 0 -1
 0 0 .0215 .964190890764112 .2652092120713525 0 .997203797181181 .07473009358642
09 31 255 6 117 0 1 13 0 14 +.005625 0 0 -1 0 0 0 .974927912181823 -.22252093395
6318 .0215 29 255 7 249 0 10 15 0 .00562500013301697 .0211344202450966 -.0039479
4823590855 19 8 CCCCCCCA5 owner12 0 Z8 256 0 1 0 0 4 V0 16 255 9 115 0 ?16 0 17
 13 0 0 1 18 255 10 247 0 18 0 19 7 250718499244401e-21 1 17 255 18 0 0 0 0 10 2
0 21 0 22 +18 19 244 0 23 10 24 15 250107977987854e-21 1 17 23 0 25 22 26 19 27
 17 0 16 -18 24 241 0 26 19 28 29 250718499244401e-21 1 29 15 246 0 19 29 7 .005
62499998752933 .0206599459691098 -.00595118762721535 29 29 243 0 24 30 15 .00562
500013301697 .0190317990814299 -.01000203169830238 29 30 240 0 28 31 29 .0056249
9998752933 .01798793919008045 -.01177641903614278 18 28 238 0 32 24 33 30 250107
977987854e-21 1 29 31 237 0 33 34 30 .00562500013301697 .01523811904970355 -.015
1673907511089 18 33 235 0 35 28 36 31 250718499244401e-21 1 29 34 234 0 36 37 31
 .00562499998752933 .0137176250752415 -.0165552639337452 18 36 232 0 38 33 39 34
 250107977987854e-21 1 29 37 231 0 39 40 34 .00562500013301697 .010090465269027
 -.0189850605746814 18 39 229 0 41 36 42 37 250718499244401e-21 1 29 40 228 0 42
 43 37 .00562499998752933 .0082284397736612 -.0198631009792552 18 42 226 0 44 39
 45 40 250107977987854e-21 1 29 43 225 0 45 46 40 .00562500013301697 .0040462293
67919935 -.02111582445162735 18 45 223 0 47 42 48 43 250718499244401e-21 1 29 46
 222 0 48 49 43 .00562499998752933 .00200812148827793 -.02140601433497545 18 48
 220 0 50 45 51 46 250107977987854e-21 1 29 49 219 0 51 52 46 .00562500013301697
 -.002357531769111935 -.0213703546607769 18 51 217 0 53 48 54 49 250718499244401
e-21 1 29 52 216 0 54 55 49 .00562499998752933 -.00439062720383484 -.02104690937
82865 18 54 214 0 56 51 57 52 250107977987854e-21 1 29 55 213 0 57 58 52 .005625
00013301697 -.00855181586260044 -.0197260350760597 18 57 211 0 59 54 60 55 25071
8499244401e-21 1 29 58 210 0 60 61 55 .00562499998752933 -.01039924940093674 -.0
1881769416049625 18 60 208 0 62 57 63 58 250107977987854e-21 1 29 61 207 0 63 64
 58 .00562500013301697 -.01398623358767112 -.01632897070855545 18 63 205 0 65 60
 66 61 250718499244401e-21 1 29 64 204 0 66 67 61 .00562499998752933 -.015483852
6524111 -.01491644423645526 18 66 202 0 68 63 69 64 250107977987854e-21 1 29 67
 201 0 69 70 64 .00562500013301697 -.01817791308090205 -.01148100563508836 18 69
 199 0 71 66 72 67 250718499244401e-21 1 29 70 198 0 72 73 67 .00562499998752933
 -.01919264764595055 -.00968980278226788 18 72 196 0 74 69 75 70 250107977987854
e-21 1 29 73 195 0 75 76 70 .00562500013301697 -.02075440522443725 -.00561290282
738031 18 75 193 0 77 72 78 73 250718499244401e-21 1 29 76 192 0 78 79 73 .00562
499998752933 -.0211960916706004 -.00360217982787685 18 78 190 0 80 75 81 76 2501
07977987854e-21 1 29 79 189 0 81 82 76 .00562500013301697 -.02148677738457395 .0
00753931028358821 18 81 187 0 83 78 84 79 250718499244401e-21 1 29 82 186 0 84 8
5 79 .00562499998752933 -.02131616993280115 .00280551261212682 18 84 184 0 86 81
 87 82 250107977987854e-21 1 29 85 183 0 87 88 82 .00562500013301697 -.020309955
08092185 .00705377480365645 18 87 181 0 89 84 90 85 250718499244401e-21 1 29 88
 180 0 90 91 85 .00562499998752933 -.01954221295200155 .00896392294475371 18 90
 178 0 92 87 93 88 250107977987854e-21 1 29 91 177 0 93 94 88 .00562500013301697
 -.01732850413955995 .01272685973266834 18 93 175 0 95 90 96 91 250718499244401e
-21 1 29 94 174 0 96 97 91 .00562499998752933 -.01603184459082755 .0143258493862
1132 18 96 172 0 98 93 99 94 250107977987854e-21 1 29 97 171 0 99 100 94 .005625
00013301697 -.01280733956051028 .0172691073235286 18 99 169 0 101 96 102 97 2507
18499244401e-21 1 29 100 168 0 102 103 97 .00562499998752933 -.01109697648316738
 .0184148612417495 18 102 166 0 104 99 105 100 250107977987854e-21 1 29 103 165
 0 105 106 100 .00562500013301697 -.00714818665742533 .0202769189444641 18 105 1
63 0 107 102 108 103 250718499244401e-21 1 29 106 162 0 108 109 103 .00562499998
752933 -.00517609331669858 .02086763186367075 18 108 160 0 110 105 111 106 25010
7977987854e-21 1 29 109 159 0 111 112 106 .00562500013301697 -.00085388600052797
9 .0214830373333908 18 111 157 0 113 108 114 109 250718499244401e-21 1 29 112 15
6 0 114 115 109 .00562499998752933 .00120470845586997 .02146622181841075 18 114
 154 0 116 111 117 112 250107977987854e-21 1 29 115 153 0 117 118 112 .005625000
13301697 .00551628617473357 .02078029357848935 18 117 151 0 119 114 120 115 2507
18499244401e-21 1 29 118 150 0 120 121 115 .00562499998752933 .00747846659535879
 .0201574437616222 18 120 148 0 122 117 123 118 250107977987854e-21 1 29 121 147
 0 123 124 118 .00562500013301697 .01139631211554688 .0182311295463227 18 123 14
5 0 125 120 126 121 250718499244401e-21 1 29 124 144 0 126 127 121 .005624999987
52933 .01308773015913988 .01705758836712855 18 126 142 0 128 123 129 124 2501079
77987854e-21 1 29 127 141 0 129 130 124 .00562500013301697 .01626372571300185 .0
1406204964797106 18 129 139 0 131 126 132 127 250718499244401e-21 1 29 130 138 0
 132 133 127 .00562499998752933 .0175340914637236 .01244209139022192 18 132 136
 0 134 129 135 130 250107977987854e-21 1 29 133 135 0 135 136 130 .0056250001330
1697 .0196860359086719 .00864349492810874 18 135 133 0 137 132 138 133 250718499
244401e-21 1 29 136 132 0 138 139 133 .00562499998752933 .02042247179466245 .006
72105999207534 18 138 130 0 140 135 141 136 250107977987854e-21 1 29 139 129 0 1
41 142 136 .00562500013301697 .0213591554231108 .00245692775253122 18 141 127 0
 143 138 144 139 250718499244401e-21 1 29 142 126 0 144 145 139 .005624999987529
33 .0214962258841042 .0004028329187468925 18 144 124 0 20 141 146 142 2501079779
87854e-21 1 29 145 123 0 146 147 142 .006794 .01716540559961775 -.00170626803305
112 18 146 121 0 148 144 149 145 ?1 29 147 120 0 149 0 145 .006794 .016852536669
5373 -.00368164471424139 18 149 118 0 150 146 0 147 ?1 17 150 0 151 152 152 149
 148 153 0 154 +15 255 151 7 0 150 12 25 17 152 0 151 150 150 146 154 155 0 0 +1
7 148 0 0 0 0 146 150 153 0 152 -16 153 9 0 ?150 155 0 156 155 155 1 17 154 0 0
 0 0 149 152 155 0 0 -16 155 11 0 ?152 21 153 156 153 153 1 16 21 12 0 ?18 157 1
55 158 0 0 1 31 156 10 0 153 0 158 0 +.006794 0 0 -1 0 0 0 .997203797181181 .074
7300935864209 .01725 133 255 158 13 0 21 156 159 0 +159 .005625 .021496225844614
3 .0004028330142077715 .005625 .0211344198072585 -.00394794875987013 .0560623093
994726 .2594732525231725 31 159 14 0 1 158 160 161 +.005625 0 0 -1 0 0 0 .997203
797181181 .0747300935864209 .0215 133 160 16 0 157 159 162 0 +162 .005625 .02135
91550132471 .002456928391321415 .005625 .02149622584835845 .0004028328144101355
 6.24345919997048 6.3392476258736 141 255 161 158 163 164 159 141 163 165 166 16
1 159 141 164 167 161 168 159 133 167 19 0 169 162 170 0 +159 .005625 .020422471
72878935 .0067210600716553 .005625 .021359155159165 .002456927122792735 6.040048
31623717 6.24345925936087 141 168 171 164 172 159 133 171 24 0 173 174 175 0 +15
9 .005625 .01753409137732045 .01244209144684994 .005625 .0196860358420712 .00864
349424854839 5.74084901589529 5.94425995901899 141 172 176 168 177 159 133 176 2
9 0 178 179 180 0 +159 .005625 .013087730059884 .01705758839577295 .005625 .0162
6372584966395 .01406204897897076 5.4416497155534 5.6450606586771 141 177 181 172
 182 159 133 181 34 0 183 184 185 0 +159 .005625 .00747846649206948 .02015744375
973785 .005625 .01139631244332874 .01823112894732605 5.14245041521152 5.34586135
833522 141 182 186 177 187 159 133 186 39 0 188 189 190 0 +159 .005625 .00120470
8357724936 .02146622178616505 .005625 .00551628666451037 .02078029310271985 4.84
325111486963 5.04666205799333 141 187 191 182 192 159 133 191 44 0 193 194 195 0
 +159 .005625 -.00517609340097872 .0208676318039289 .005625 -.000853885392275064
 .02148303702312265 4.54405181452776 4.74746275765144 141 192 196 187 197 159 13
3 196 49 0 198 199 200 0 +159 .005625 -.01109697654609396 .0184148611598198 .005
625 -.00714818598474224 .020276918827266 4.244852514185875 4.448263457309575 141
 197 201 192 202 159 133 201 54 0 203 204 205 0 +159 .005625 -.0160318446268093
 .0143258492893736 .005625 -.01280733888316786 .0172691074098141 3.9456532138439
9 4.149064156967685 141 202 206 197 207 159 133 206 59 0 208 209 210 0 +159 .005
625 -.0195422129578413 .0089639228416124 .005625 -.01732850351774305 .0127268600
147706 3.6464539135021 3.8498648566258 141 207 211 202 212 159 133 211 64 0 213
 214 215 0 +159 .005625 -.02131616990798 .002805512511846495 .005625 -.020309954
5698816 .00705377525650943 3.347254613160215 3.550665556283915 141 212 216 207 2
17 159 133 216 69 0 218 219 220 0 +159 .005625 -.02119609161732385 -.00360217991
6385845 .005625 -.0214867770297186 .00075393161172457 3.04805531281833 3.2514662
5594203 141 217 221 212 222 159 133 221 74 0 223 224 225 0 +159 .005625 -.019192
64756895245 -.00968980285114113 .005625 -.02075440505729715 -.0056129021653364 2
.748856012476445 2.952266955600145 141 222 226 217 227 159 133 226 79 0 228 229
 230 0 +159 .005625 -.0154838525585331 -.0149164442795731 .005625 -.018177913116
32845 -.0114810049531918 2.44965671213456 2.65306765525826 141 227 231 222 232 1
59 133 231 84 0 233 234 235 0 +159 .005625 -.01039924929852024 -.018817694174027
45 .005625 -.01398623382251612 -.01632897006739575 2.150457411792675 2.353868354
916375 141 232 236 227 237 159 133 236 89 0 238 239 240 0 +159 .005625 -.0043906
27101980035 -.0210469093610287 .005625 -.00855181627599707 -.0197260345326067 1.
851258111450785 2.054669054574485 141 237 241 232 242 159 133 241 94 0 243 244 2
45 0 +159 .005625 .002008121580520795 -.02140601428846215 .005625 -.002357532324
3281 -.0213703542633188 1.5520588111089 1.7554697542326 141 242 246 237 247 159
 133 246 99 0 248 249 250 0 +159 .005625 .00822843984809595 -.0198631009076193 .
005625 .004046228720217635 -.02111582423548005 1.252859510767016 1.4562704538907
16 141 247 251 242 166 159 133 251 104 0 252 253 254 0 +159 .005625 .01371762512
525426 -.01655526384335185 .005625 .01009046458638976 -.0189850605590505 .953660
21042513 1.15707115354883 141 166 255 247 163 159 133 255 109 0 256 257 258 0 +1
59 .005625 .0179879392112274 -.01177641893502384 .005625 .01523811839278665 -.01
51673909373833 .654460910083244 .857871853206944 16 256 108 0 ?259 260 261 255 0
 0 1 31 257 107 0 1 254 255 262 +.005625 0 0 -1 0 0 0 .680172737770916 -.7330518
7182983 .0215 133 258 111 0 260 255 263 0 +263 .005625 .01903179910262795 -.0100
020309396247 .005625 .01798793910177095 -.01177641910221354 6.24345919997048 6.3
392476258736 16 260 110 0 ?264 17 256 258 0 0 1 31 263 112 0 1 258 165 265 +.005
625 0 0 -1 0 0 0 .866025403784437 -.5 .0215 133 165 114 0 17 263 13 0 +159 .0056
25 .02065994595951195 -.00595118752435568 .005625 .01903179850860335 -.010002032
06993076 .355261609741358 .558672552865058 141 265 258 265 265 263 16 17 113 0 ?
27 9 260 165 0 0 1 133 13 116 0 9 165 6 0 +6 .005625 .0211344200417287 -.0039479
47504688565 .005625 .02065994590419835 -.00595118771638048 6.24345919997048 6.33
92476258736 17 27 0 0 0 0 24 23 17 0 0 +17 264 0 0 0 0 28 26 260 0 0 +17 26 0 25
 23 32 24 264 260 0 27 -15 25 8 0 20 12 0 17 32 0 25 26 35 28 259 256 0 264 -17
 35 0 25 32 38 33 266 261 0 259 -17 259 0 0 0 0 33 32 256 0 0 +17 38 0 25 35 41
 36 267 252 0 266 -17 266 0 0 0 0 36 35 261 0 0 +16 261 105 0 ?266 256 252 254 0
 0 1 16 252 103 0 ?267 261 268 251 0 0 1 133 254 106 0 261 251 257 0 +257 .00562
5 .015238119293584 -.0151673900323854 .005625 .01371762497138062 -.0165552639708
5095 6.24345919997048 6.3392476258736 17 267 0 0 0 0 39 38 252 0 0 +16 268 100 0
 ?269 252 248 250 0 0 1 17 269 0 0 0 0 42 41 268 0 0 +16 248 98 0 ?270 268 271 2
46 0 0 1 133 250 101 0 268 246 253 0 +253 .005625 .01009046571392 -.018985059959
77375 .005625 .00822843966347746 -.0198631009840989 6.24345919997048 6.339247625
8736 31 253 102 0 1 250 251 272 +.005625 0 0 -1 0 0 0 .4338837391175525 -.900968
867902422 .0215 141 272 250 272 272 253 17 270 0 0 0 0 45 44 248 0 0 +16 271 95
 0 ?273 248 243 245 0 0 1 17 273 0 0 0 0 48 47 271 0 0 +16 243 93 0 ?274 271 275
 241 0 0 1 133 245 96 0 271 241 249 0 +249 .005625 .00404622997429479 -.02111582
399517285 .005625 .002008121381561635 -.02140601430712675 6.24345919997048 6.339
2476258736 31 249 97 0 1 245 246 276 +.005625 0 0 -1 0 0 0 .1490422661761676 -.9
8883082622513 .0215 141 276 245 276 276 249 17 274 0 0 0 0 51 50 243 0 0 +16 275
 90 0 ?277 243 238 240 0 0 1 17 277 0 0 0 0 54 53 275 0 0 +16 238 88 0 ?278 275
 279 236 0 0 1 133 240 91 0 275 236 244 0 +244 .005625 -.002357531055134295 -.02
137035440333355 .005625 -.00439062729760148 -.02104690932021985 6.24345919997048
 6.3392476258736 31 244 92 0 1 240 241 280 +.005625 0 0 -1 0 0 0 -.1490422661761
82 -.988830826225127 .0215 141 280 240 280 280 244 17 278 0 0 0 0 57 56 238 0 0
 +16 279 85 0 ?281 238 233 235 0 0 1 17 281 0 0 0 0 60 59 279 0 0 +16 233 83 0 ?
282 279 283 231 0 0 1 133 235 86 0 279 231 239 0 +239 .005625 -.0085518151044600
6 -.0197260350405024 .005625 -.01039924947342214 -.01881769407737115 6.243459199
97048 6.3392476258736 31 239 87 0 1 235 236 284 +.005625 0 0 -1 0 0 0 -.43388373
9117565 -.900968867902416 .0215 141 284 235 284 284 239 17 282 0 0 0 0 63 62 233
 0 0 +16 283 80 0 ?285 233 228 230 0 0 1 17 285 0 0 0 0 66 65 283 0 0 +16 228 78
 0 ?286 283 287 226 0 0 1 133 230 81 0 283 226 234 0 +234 .005625 -.013986232852
7321 -.01632897089804365 .005625 -.01548385269717465 -.01491644413565772 6.24345
919997048 6.3392476258736 31 234 82 0 1 230 231 288 +.005625 0 0 -1 0 0 0 -.6801
72737770926 -.733051871829821 .0215 141 288 230 288 288 234 17 286 0 0 0 0 69 68
 228 0 0 +16 287 75 0 ?289 228 223 225 0 0 1 17 289 0 0 0 0 72 71 287 0 0 +16 22
3 73 0 ?290 287 291 221 0 0 1 133 225 76 0 287 221 229 0 +229 .005625 -.01817791
243446695 -.01148100603278524 .005625 -.0191926476590148 -.0096898026727542 6.24
345919997048 6.3392476258736 31 229 77 0 1 225 226 292 +.005625 0 0 -1 0 0 0 -.8
66025403784443 -.499999999999992 .0215 141 292 225 292 292 229 17 290 0 0 0 0 75
 74 223 0 0 +16 291 70 0 ?293 223 218 220 0 0 1 17 293 0 0 0 0 78 77 291 0 0 +16
 218 68 0 ?294 291 295 216 0 0 1 133 220 71 0 291 216 224 0 +224 .005625 -.02075
440472394465 -.00561290339794873 .005625 -.02119609165080445 -.00360217971937782
 6.24345919997048 6.3392476258736 31 224 72 0 1 220 221 296 +.005625 0 0 -1 0 0
 0 -.974927912181826 -.222520933956304 .0215 141 296 220 296 296 224 17 294 0 0
 0 0 81 80 218 0 0 +16 295 65 0 ?297 218 213 215 0 0 1 17 297 0 0 0 0 84 83 295
 0 0 +16 213 63 0 ?298 295 299 211 0 0 1 133 215 66 0 295 211 219 0 +219 .005625
 -.02148677707449485 .000753930335616371 .005625 -.02131616988190405 .0028055127
0997059 6.24345919997048 6.3392476258736 31 219 67 0 1 215 216 300 +.005625 0 0
 -1 0 0 0 -.997203797181179 .074730093586435 .0215 141 300 215 300 300 219 17 29
8 0 0 0 0 87 86 213 0 0 +16 299 60 0 ?301 213 208 210 0 0 1 17 301 0 0 0 0 90 89
 299 0 0 +16 208 58 0 ?302 299 303 206 0 0 1 133 210 61 0 299 206 214 0 +214 .00
5625 -.0203099549888081 .00705377405029318 .005625 -.0195422128745257 .008963923
02324838 6.24345919997048 6.3392476258736 31 214 62 0 1 210 211 304 +.005625 0 0
 -1 0 0 0 -.9308737486442 .3653410243664055 .0215 141 304 210 304 304 214 17 302
 0 0 0 0 93 92 208 0 0 +16 303 55 0 ?305 208 203 205 0 0 1 17 305 0 0 0 0 96 95
 303 0 0 +16 203 53 0 ?306 303 307 201 0 0 1 133 205 56 0 303 201 209 0 +209 .00
5625 -.0173285042735963 .01272685898562388 .005625 -.01603184449365705 .01432584
94383823 6.24345919997048 6.3392476258736 31 209 57 0 1 205 206 308 +.005625 0 0
 -1 0 0 0 -.781831482468022 .623489801858743 .0215 141 308 205 308 308 209 17 30
6 0 0 0 0 99 98 203 0 0 +16 307 50 0 ?309 203 198 200 0 0 1 17 309 0 0 0 0 102 1
01 307 0 0 +16 198 48 0 ?310 307 311 196 0 0 1 133 200 51 0 307 196 204 0 +204 .
005625 -.01280733990878696 .01726910664918115 .005625 -.01109697637493622 .01841
486126296115 6.24345919997048 6.3392476258736 31 204 52 0 1 200 201 312 +.005625
 0 0 -1 0 0 0 -.563320058063612 .826238774316002 .0215 141 312 200 312 312 204 1
7 310 0 0 0 0 105 104 198 0 0 +16 311 45 0 ?313 198 193 195 0 0 1 17 313 0 0 0 0
 108 107 311 0 0 +16 193 43 0 ?314 311 315 191 0 0 1 133 195 46 0 311 191 199 0
 +199 .005625 -.00714818718899647 .02027691840273235 .005625 -.00517609320702358
 .0208676318520383 6.24345919997048 6.3392476258736 31 199 47 0 1 195 196 316 +.
005625 0 0 -1 0 0 0 -.294755174410891 .955572805786145 .0215 141 316 195 316 316
 199 17 314 0 0 0 0 111 110 193 0 0 +16 315 40 0 ?317 193 188 190 0 0 1 17 317 0
 0 0 0 114 113 315 0 0 +16 188 38 0 ?318 315 319 186 0 0 1 133 190 41 0 315 186
 194 0 +194 .005625 -.00085388666816114 .02148303697241005 .005625 .001204708557
243698 .02146622177496785 6.24345919997048 6.3392476258736 31 194 42 0 1 190 191
 320 +.005625 0 0 -1 0 0 0 0 1 .0215 141 320 190 320 320 194 17 318 0 0 0 0 117
 116 188 0 0 +16 319 35 0 ?321 188 183 185 0 0 1 17 321 0 0 0 0 120 119 319 0 0
 +16 183 33 0 ?322 319 323 181 0 0 1 133 185 36 0 319 181 189 0 +189 .005625 .00
551628543036052 .02078029343033425 .005625 .00747846667942375 .0201574436902289
 6.24345919997048 6.3392476258736 31 189 37 0 1 185 186 324 +.005625 0 0 -1 0 0
 0 .294755174410905 .955572805786141 .0215 141 324 185 324 324 189 17 322 0 0 0
 0 123 122 183 0 0 +16 323 30 0 ?325 183 178 180 0 0 1 17 325 0 0 0 0 126 125 32
3 0 0 +16 178 28 0 ?326 323 327 176 0 0 1 133 180 31 0 323 176 184 0 +184 .00562
5 .01139631136057476 .01823112962415755 .005625 .01308773021842652 .017057588274
12845 6.24345919997048 6.3392476258736 31 184 32 0 1 180 181 328 +.005625 0 0 -1
 0 0 0 .563320058063623 .826238774315994 .0215 141 328 180 328 328 184 17 326 0
 0 0 0 129 128 178 0 0 +16 327 25 0 ?329 178 173 175 0 0 1 17 329 0 0 0 0 132 13
1 327 0 0 +16 173 23 0 ?330 327 331 171 0 0 1 133 175 26 0 327 171 179 0 +179 .0
05625 .01626372501451325 .01406204994487986 .005625 .01753409149296405 .01244209
128387854 6.24345919997048 6.3392476258736 31 179 27 0 1 175 176 332 +.005625 0
 0 -1 0 0 0 .781831482468031 .623489801858732 .0215 141 332 175 332 332 179 17 3
30 0 0 0 0 135 134 173 0 0 +16 331 20 0 ?333 173 169 170 0 0 1 17 333 0 0 0 0 13
8 137 331 0 0 +16 169 18 0 ?334 331 157 167 0 0 1 133 170 21 0 331 167 174 0 +17
4 .005625 .0196860353287306 .00864349541770984 .005625 .02042247179125855 .00672
105988183772 6.24345919997048 6.3392476258736 31 174 22 0 1 170 171 335 +.005625
 0 0 -1 0 0 0 .930873748644205 .3653410243663925 .0215 141 335 170 335 335 174 1
7 334 0 0 0 0 141 140 169 0 0 +16 157 15 0 ?336 169 21 160 0 0 1 17 336 0 0 0 0
 144 143 157 0 0 +17 143 0 25 140 20 141 336 157 0 334 -17 140 0 25 137 143 138
 334 169 0 333 -17 20 0 25 143 22 144 18 21 0 336 -17 22 0 25 20 23 10 16 9 0 0
 -17 16 0 0 0 0 19 22 9 0 0 +17 137 0 25 134 140 135 333 331 0 330 -17 134 0 25
 131 137 132 330 173 0 329 -17 131 0 25 128 134 129 329 327 0 326 -17 128 0 25 1
25 131 126 326 178 0 325 -17 125 0 25 122 128 123 325 323 0 322 -17 122 0 25 119
 125 120 322 183 0 321 -17 119 0 25 116 122 117 321 319 0 318 -17 116 0 25 113 1
19 114 318 188 0 317 -17 113 0 25 110 116 111 317 315 0 314 -17 110 0 25 107 113
 108 314 193 0 313 -17 107 0 25 104 110 105 313 311 0 310 -17 104 0 25 101 107 1
02 310 198 0 309 -17 101 0 25 98 104 99 309 307 0 306 -17 98 0 25 95 101 96 306
 203 0 305 -17 95 0 25 92 98 93 305 303 0 302 -17 92 0 25 89 95 90 302 208 0 301
 -17 89 0 25 86 92 87 301 299 0 298 -17 86 0 25 83 89 84 298 213 0 297 -17 83 0
 25 80 86 81 297 295 0 294 -17 80 0 25 77 83 78 294 218 0 293 -17 77 0 25 74 80
 75 293 291 0 290 -17 74 0 25 71 77 72 290 223 0 289 -17 71 0 25 68 74 69 289 28
7 0 286 -17 68 0 25 65 71 66 286 228 0 285 -17 65 0 25 62 68 63 285 283 0 282 -1
7 62 0 25 59 65 60 282 233 0 281 -17 59 0 25 56 62 57 281 279 0 278 -17 56 0 25
 53 59 54 278 238 0 277 -17 53 0 25 50 56 51 277 275 0 274 -17 50 0 25 47 53 48
 274 243 0 273 -17 47 0 25 44 50 45 273 271 0 270 -17 44 0 25 41 47 42 270 248 0
 269 -17 41 0 25 38 44 39 269 268 0 267 -14 255 12 1 337 ?0 0 151 4 5 +0 0 0 0 4
 81 255 1 337 302 338 12 339 0 0 0 340 80 255 1 338 341 342 9000 1 1 1 1 1 1 1 1
 0 FFFFTFTFFFFFFF1 81 1 339 6 343 12 0 337 0 0 344 82 255 1 340 1646330080 80 1
 343 0 345 8001 0 0 0 0 3 5 0 0 0 FFFFTFTFFFFFFF2 83 255 3 344 .792156862745098
 .819607843137255 .933333333333333 79 255 15 345 SDL/TYSA_COLOUR79 14 342 SWEntU
nchanged141 262 254 262 262 257 31 162 17 0 1 160 167 346 +.005625 0 0 -1 0 0 0
 .997203797181181 .0747300935864209 .0215 141 346 160 346 346 162 141 14 13 14 1
4 6 74 4 CI16 index_map_offset0 0 1 dCCZ20 11 2 0 0 339 337 0 0 0 0 0 0 0 0 0 0
 0 0 0 0 0 0 0 0 1 0 
